# xmcd
#
# Track frame offsets:
#	150
#	50636
#	93543
#	118332
#	148857
#	213110
#	254528
#	300952
#
# Disc length: 4415 seconds
#
# Revision: 0
# Processed by: cddbd v1.5.2PL0 Copyright (c) Steve Scherf et al.
# Submitted via: audiograbber 1.83.01
#
DISCID=74113d08
DTITLE=Ludwig van Beethoven - Symphonies No. 4 and 7 [Beethoven Orchester Bonn - 
DTITLE=Stefan Blunier] [MDG SACD]
DYEAR=2017
DGENRE=Classical
TTITLE0=Symphony No. 4 op. 60 B flat major - Adagio - Allegro vivace
TTITLE1=Symphony No. 4 op. 60 B flat major - Adagio
TTITLE2=Symphony No. 4 op. 60 B flat major - Allegro vivace
TTITLE3=Symphony No. 4 op. 60 B flat major - Allegro ma non troppo
TTITLE4=Symphony No. 7 op. 92 A major - Poco sostenuto - Vivace
TTITLE5=Symphony No. 7 op. 92 A major - Allegretto
TTITLE6=Symphony No. 7 op. 92 A major - Presto
TTITLE7=Symphony No. 7 op. 92 A major - Allegro con brio
EXTD=
EXTT0=
EXTT1=
EXTT2=
EXTT3=
EXTT4=
EXTT5=
EXTT6=
EXTT7=
PLAYORDER=
